<?xml version="1.0" standalone="no"?><!DOCTYPE svg PUBLIC "-//W3C//DTD SVG 1.1//EN" "http://www.w3.org/Graphics/SVG/1.1/DTD/svg11.dtd"><svg t="1548036876277" class="icon" style="" viewBox="0 0 1024 1024" version="1.1" xmlns="http://www.w3.org/2000/svg" p-id="1670" xmlns:xlink="http://www.w3.org/1999/xlink" width="40" height="40"><defs><style type="text/css"></style></defs><path d="M188.416 434.176c12.288 0 20.48-8.192 20.48-20.48L208.896 258.048c0-20.48 16.384-36.864 36.864-36.864l155.648 0c12.288 0 20.48-8.192 20.48-20.48s-8.192-20.48-20.48-20.48L245.76 180.224c-40.96 0-77.824 32.768-77.824 77.824l0 155.648C167.936 425.984 176.128 434.176 188.416 434.176z" p-id="1671" fill="#ffffff"></path><path d="M622.592 221.184 778.24 221.184c20.48 0 36.864 16.384 36.864 36.864l0 155.648c0 12.288 8.192 20.48 20.48 20.48s20.48-8.192 20.48-20.48L856.064 258.048c0-40.96-32.768-77.824-77.824-77.824l-155.648 0c-12.288 0-20.48 8.192-20.48 20.48S610.304 221.184 622.592 221.184z" p-id="1672" fill="#ffffff"></path><path d="M835.584 614.4c-12.288 0-20.48 8.192-20.48 20.48l0 155.648c0 20.48-16.384 36.864-36.864 36.864l-155.648 0c-12.288 0-20.48 8.192-20.48 20.48s8.192 20.48 20.48 20.48L778.24 868.352c40.96 0 77.824-32.768 77.824-77.824l0-155.648C856.064 622.592 847.872 614.4 835.584 614.4z" p-id="1673" fill="#ffffff"></path><path d="M401.408 827.392 245.76 827.392c-20.48 0-36.864-16.384-36.864-36.864l0-155.648c0-12.288-8.192-20.48-20.48-20.48s-20.48 8.192-20.48 20.48l0 155.648c0 40.96 32.768 77.824 77.824 77.824l155.648 0c12.288 0 20.48-8.192 20.48-20.48S413.696 827.392 401.408 827.392z" p-id="1674" fill="#ffffff"></path><path d="M851.968 503.808 172.032 503.808c-12.288 0-20.48 8.192-20.48 20.48s8.192 20.48 20.48 20.48l684.032 0c12.288 0 20.48-8.192 20.48-20.48S864.256 503.808 851.968 503.808z" p-id="1675" fill="#ffffff"></path></svg>